<?xml version="1.0" encoding="UTF-8" standalone="no"?>
<!-- Created with Inkscape (http://www.inkscape.org/) -->

<svg
   xmlns:dc="http://purl.org/dc/elements/1.1/"
   xmlns:cc="http://creativecommons.org/ns#"
   xmlns:rdf="http://www.w3.org/1999/02/22-rdf-syntax-ns#"
   xmlns:svg="http://www.w3.org/2000/svg"
   xmlns="http://www.w3.org/2000/svg"
   xmlns:sodipodi="http://sodipodi.sourceforge.net/DTD/sodipodi-0.dtd"
   xmlns:inkscape="http://www.inkscape.org/namespaces/inkscape"
   width="74mm"
   height="52mm"
   viewBox="0 0 74 52"
   version="1.1"
   id="SVGRoot"
   inkscape:version="0.92.3 (2405546, 2018-03-11)"
   sodipodi:docname="PATY.svg">
  <sodipodi:namedview
     id="base"
     pagecolor="#ffffff"
     bordercolor="#666666"
     borderopacity="1.0"
     inkscape:pageopacity="0.0"
     inkscape:pageshadow="2"
     inkscape:zoom="2"
     inkscape:cx="56.25"
     inkscape:cy="98"
     inkscape:document-units="mm"
     inkscape:current-layer="layer1"
     showgrid="false"
     inkscape:window-width="1366"
     inkscape:window-height="705"
     inkscape:window-x="-8"
     inkscape:window-y="-8"
     inkscape:window-maximized="1" />
  <defs
     id="defs3756" />
  <metadata
     id="metadata3759">
    <rdf:RDF>
      <cc:Work
         rdf:about="">
        <dc:format>image/svg+xml</dc:format>
        <dc:type
           rdf:resource="http://purl.org/dc/dcmitype/StillImage" />
        <dc:title></dc:title>
      </cc:Work>
    </rdf:RDF>
  </metadata>
  <g
     inkscape:label="Capa 1"
     inkscape:groupmode="layer"
     id="layer1">
    <path
       inkscape:connector-curvature="0"
       id="path3772"
       d="M 15.213541,6.3593744 14.816666,6.491666"
       style="fill:none;stroke:#000000;stroke-width:0.26458332px;stroke-linecap:butt;stroke-linejoin:miter;stroke-opacity:1;opacity:1" />
    <flowRoot
       transform="scale(0.26458333)"
       style="font-style:normal;font-weight:normal;font-size:40px;line-height:1.25;font-family:sans-serif;letter-spacing:0px;word-spacing:0px;fill:#000000;fill-opacity:1;stroke:none;opacity:1"
       id="flowRoot3774"
       xml:space="preserve"><flowRegion
         id="flowRegion3776"><rect
           y="24.535431"
           x="55.999996"
           height="44.5"
           width="131.5"
           id="rect3778" /></flowRegion><flowPara
         id="flowPara3780">PPP</flowPara></flowRoot>    <text
       id="text3784"
       y="13.9"
       x="16.404167"
       style="font-style:normal;font-weight:normal;font-size:10.58333302px;line-height:1.25;font-family:sans-serif;letter-spacing:0px;word-spacing:0px;fill:#000000;fill-opacity:1;stroke:none;stroke-width:0.26458332;opacity:1"
       xml:space="preserve"><tspan
         style="stroke-width:0.26458332;opacity:1"
         y="13.9"
         x="16.404167"
         id="tspan3782"
         sodipodi:role="line">M P R V</tspan><tspan
         id="tspan3787"
         style="stroke-width:0.26458332;opacity:1"
         y="27.129166"
         x="16.404167"
         sodipodi:role="line" /></text>
    <path
       d="m 14.552083,20.646873 c 0.696454,0.09286 0.218432,0.98462 -0.15434,1.157552 -1.010188,0.468636 -1.994868,-0.531324 -2.160764,-1.466231 -0.296748,-1.67233 1.205129,-3.043322 2.778123,-3.163976 2.308433,-0.177065 4.111407,1.883939 4.167189,4.090015 0.07435,2.940352 -2.563984,5.187169 -5.401907,5.1704 -3.571237,-0.0211 -6.2667631,-3.244485 -6.1736127,-6.713798 0.1128175,-4.201804 3.9252167,-7.348551 8.0256907,-7.176825 4.832266,0.202372 8.43171,4.606087 8.180037,9.337582 -0.290567,5.462698 -5.287052,9.515787 -10.649474,9.183249 C 7.0698995,30.686991 2.5625201,25.096759 2.9765634,19.103475 3.4410575,12.379917 9.6257262,7.4177858 16.249821,7.9138019 c 4.968848,0.3720703 9.348634,3.6759251 11.220861,8.2702851"
       sodipodi:t0="0"
       sodipodi:argument="-18.717005"
       sodipodi:radius="13.667724"
       sodipodi:revolution="2.9259658"
       sodipodi:expansion="1"
       sodipodi:cy="20.646873"
       sodipodi:cx="14.552083"
       id="path3789"
       style="fill:none;fill-rule:evenodd;stroke:#000000;stroke-width:0.26458332;opacity:1"
       sodipodi:type="spiral" />
    <path
       d="m 10.054167,18.265625 c 0.343952,-0.185009 0.419082,0.372364 0.307497,0.571671 -0.302389,0.540111 -1.0716127,0.410406 -1.4508394,0.04332 -0.6783477,-0.656625 -0.4483848,-1.763333 0.2208501,-2.330008 0.9821293,-0.831619 2.4655263,-0.490503 3.2091763,0.485024 0.991169,1.300223 0.534565,3.171579 -0.749197,4.088345 C 9.9761698,22.277636 7.7121458,21.70365 6.6241401,20.110609 5.3064195,18.181223 5.9987556,15.52211 7.9016852,14.263927 c 2.2425368,-1.482725 5.2981538,-0.671484 6.7258508,1.541719 1.648332,2.555231 0.71784,6.008252 -1.805893,7.605019 -2.8676254,1.814349 -6.7186602,0.764375 -8.4841873,-2.070066 -1.9806546,-3.179815 -0.8110396,-7.429296 2.3342401,-9.363356 2.359391,-1.450811 5.4083652,-1.389099 7.7480982,0.07067"
       sodipodi:t0="0"
       sodipodi:argument="-19.343056"
       sodipodi:radius="7.5972743"
       sodipodi:revolution="2.9259701"
       sodipodi:expansion="1"
       sodipodi:cy="18.265625"
       sodipodi:cx="10.054167"
       id="path4596"
       style="fill:none;fill-rule:evenodd;stroke:#000000;stroke-width:0.26458332;opacity:1"
       sodipodi:type="spiral" />
    <path
       d="m 11.244792,11.915625 c -0.127847,0.0728 -0.16121,-0.136417 -0.121001,-0.21249 0.108964,-0.206152 0.399827,-0.164303 0.54598,-0.02951 0.261433,0.24111 0.184898,0.659979 -0.06198,0.879471 -0.362297,0.322115 -0.924035,0.207147 -1.212961,-0.153464 -0.385094,-0.480637 -0.230163,-1.189529 0.244952,-1.546452 0.597885,-0.449153 1.455719,-0.253588 1.879944,0.336441 0.513793,0.714605 0.277253,1.722303 -0.42793,2.213434 -0.831034,0.578781 -1.989134,0.301069 -2.5469249,-0.519419 -0.6439917,-0.947285 -0.3249856,-2.256129 0.6109069,-2.880415 1.063421,-0.7093536 2.52324,-0.3489722 3.213906,0.702396 0.774823,1.179475 0.37301,2.790434 -0.793884,3.547396 -0.87533,0.567825 -2.024111,0.57232 -2.9185135,0.04386"
       sodipodi:t0="0"
       sodipodi:argument="-16.225613"
       sodipodi:radius="2.8619063"
       sodipodi:revolution="2.9259701"
       sodipodi:expansion="1"
       sodipodi:cy="11.915625"
       sodipodi:cx="11.244792"
       id="path4598"
       style="fill:none;fill-rule:evenodd;stroke:#000000;stroke-width:0.26458332;opacity:1"
       sodipodi:type="spiral" />
  </g>
  <g
     inkscape:label="Capa 2"
     id="layer2"
     inkscape:groupmode="layer" />
</svg>
